<?xml version="1.0" encoding="iso-8859-1"?>
<!-- Generator: Adobe Illustrator 18.1.1, SVG Export Plug-In . SVG Version: 6.00 Build 0)  -->
<svg version="1.1" id="Capa_1" xmlns="http://www.w3.org/2000/svg" xmlns:xlink="http://www.w3.org/1999/xlink" x="0px" y="0px"
	 viewBox="0 0 304.919 304.919" style="enable-background:new 0 0 304.919 304.919;" xml:space="preserve">
<g>
	<path style="fill:#010002;" d="M254.654,47.102h-20.734V21.756C233.921,9.741,224.179,0,212.164,0h-15.3
		c-12.015,0-21.756,9.741-21.756,21.756v25.346H124.84V21.756C124.84,9.741,115.099,0,103.084,0H87.789
		C75.774,0,66.033,9.741,66.033,21.756v25.346c0,0-4.183,0-16.045,0c-11.868,0-21.484,9.741-21.484,21.756v214.305
		c0,12.015,9.741,21.756,21.756,21.756h204.4c12.015,0,21.756-9.741,21.756-21.756V68.859
		C276.411,56.844,266.669,47.102,254.654,47.102z M192.937,13.217h23.97v44.622h-23.97V13.217z M83.862,13.217h23.959v44.622H83.862
		V13.217z M83.862,67.765h23.959v19.831H83.862V67.765z M94.604,276.827H61.557v-33.053h33.048V276.827z M94.604,230.54H61.557
		v-33.042h33.048V230.54z M94.604,184.275H61.557v-33.053h33.048V184.275z M94.604,138H61.557v-33.059h33.048V138z M140.885,276.827
		h-33.064v-33.053h33.064V276.827z M140.885,230.54h-33.064v-33.042h33.064V230.54z M140.885,184.275h-33.064v-33.053h33.064
		V184.275z M140.885,138h-33.064v-33.059h33.064V138z M187.155,276.827h-33.053v-33.053h33.053V276.827z M187.155,230.54h-33.053
		v-33.042h33.053V230.54z M187.155,184.275h-33.053v-33.053h33.053V184.275z M187.155,138h-33.053v-33.059h33.053V138z
		 M192.937,67.765h23.97v19.831h-23.97V67.765z M233.436,276.827h-33.064v-33.053h33.064V276.827z M233.436,230.54h-33.064v-33.042
		h33.064V230.54z M233.436,184.275h-33.064v-33.053h33.064V184.275z M233.436,138h-33.064v-33.059h33.064V138z"/>
</g>
<g>
</g>
<g>
</g>
<g>
</g>
<g>
</g>
<g>
</g>
<g>
</g>
<g>
</g>
<g>
</g>
<g>
</g>
<g>
</g>
<g>
</g>
<g>
</g>
<g>
</g>
<g>
</g>
<g>
</g>
</svg>
